# xmcd CD database file
#
# Track frame offsets:
#	150
#	13019
#	27268
#	39120
#	53415
#	71232
#	87272
#	104848
#	117408
#	130129
#
# Disc length: 1945 seconds
#
# Revision: 0
# Processed by: cddbd v1.5.2PL0 Copyright (c) Steve Scherf et al.
# Submitted via: CDex 1.79
#
DISCID=8107970a
DTITLE=Cat Clyde - Ivory Castanets
DYEAR=2017
DGENRE=Blues
TTITLE0=Sheets Of Green
TTITLE1=The Meadow
TTITLE2=Running Water
TTITLE3=Like A Wave
TTITLE4=Heavy Weight
TTITLE5=Mama Said
TTITLE6=The Man I Loved Blues
TTITLE7=Move Along
TTITLE8=	Walkin' Down The Road
TTITLE9=Chimes In The Night
EXTD=YEAR: 2017
EXTT0=
EXTT1=
EXTT2=
EXTT3=
EXTT4=
EXTT5=
EXTT6=
EXTT7=
EXTT8=
EXTT9=
PLAYORDER=
